<svg width="15" height="15" viewBox="0 0 15 15" fill="none" xmlns="http://www.w3.org/2000/svg">
<g clip-path="url(#clip0_3_28)">
<path d="M12.1875 1.875H11.7188V1.41944C11.7188 1.16719 11.5248 0.950687 11.2726 0.938089C11.2092 0.935035 11.1458 0.944881 11.0864 0.96703C11.0269 0.989179 10.9726 1.02317 10.9266 1.06694C10.8807 1.11072 10.8441 1.16336 10.8191 1.22168C10.7941 1.28001 10.7813 1.3428 10.7812 1.40625V1.875H4.21875V1.41944C4.21875 1.16719 4.0248 0.950687 3.77256 0.938089C3.70918 0.935035 3.64584 0.944881 3.58638 0.96703C3.52692 0.989179 3.47257 1.02317 3.42663 1.06694C3.3807 1.11072 3.34412 1.16336 3.31913 1.22168C3.29414 1.28001 3.28126 1.3428 3.28125 1.40625V1.875H2.8125C2.31522 1.875 1.83831 2.07255 1.48667 2.42418C1.13504 2.77581 0.9375 3.25272 0.9375 3.75V4.10157C0.9375 4.13265 0.949847 4.16245 0.971823 4.18443C0.9938 4.20641 1.02361 4.21875 1.05469 4.21875H13.9453C13.9764 4.21875 14.0062 4.20641 14.0282 4.18443C14.0502 4.16245 14.0625 4.13265 14.0625 4.10157V3.75C14.0625 3.25272 13.865 2.77581 13.5133 2.42418C13.1617 2.07255 12.6848 1.875 12.1875 1.875ZM13.9453 5.15625H1.05469C1.02361 5.15625 0.9938 5.1686 0.971823 5.19058C0.949847 5.21255 0.9375 5.24236 0.9375 5.27344V12.1875C0.9375 12.6848 1.13504 13.1617 1.48667 13.5133C1.83831 13.865 2.31522 14.0625 2.8125 14.0625H12.1875C12.6848 14.0625 13.1617 13.865 13.5133 13.5133C13.865 13.1617 14.0625 12.6848 14.0625 12.1875V5.27344C14.0625 5.24236 14.0502 5.21255 14.0282 5.19058C14.0062 5.1686 13.9764 5.15625 13.9453 5.15625ZM7.01895 11.751C6.6624 12.0325 6.17666 12.1875 5.65078 12.1875C4.83428 12.1875 4.23047 11.6555 3.96152 11.2002C3.8982 11.0931 3.88 10.9653 3.91093 10.8448C3.94186 10.7243 4.01939 10.621 4.12647 10.5577C4.23354 10.4944 4.36138 10.4762 4.48187 10.5071C4.60235 10.5381 4.70562 10.6156 4.76895 10.7227C4.80059 10.7766 5.09561 11.25 5.65078 11.25C6.13887 11.25 6.70898 11.0364 6.70898 10.435C6.70898 10.2519 6.67324 9.99697 6.50391 9.82324C6.25371 9.56719 5.8374 9.45205 5.62178 9.45205C5.49746 9.45205 5.37823 9.40267 5.29032 9.31476C5.20241 9.22685 5.15303 9.10762 5.15303 8.9833C5.15303 8.85898 5.20241 8.73975 5.29032 8.65185C5.37823 8.56394 5.49746 8.51455 5.62178 8.51455C5.76387 8.51455 6.13184 8.43838 6.3624 8.20254C6.42478 8.14119 6.47401 8.06779 6.50711 7.9868C6.5402 7.9058 6.55645 7.81892 6.55488 7.73145C6.55488 7.05088 5.71611 7.03125 5.62061 7.03125C5.1126 7.03125 4.92334 7.34209 4.91543 7.35528C4.88498 7.40988 4.84391 7.45783 4.79464 7.49633C4.74537 7.53482 4.68891 7.56306 4.62856 7.5794C4.56821 7.59574 4.5052 7.59984 4.44325 7.59147C4.38129 7.58309 4.32164 7.56241 4.2678 7.53063C4.21395 7.49885 4.16701 7.45662 4.12974 7.40643C4.09246 7.35624 4.0656 7.2991 4.05074 7.23837C4.03588 7.17765 4.03331 7.11456 4.0432 7.05282C4.05308 6.99109 4.07522 6.93196 4.1083 6.87891C4.33213 6.49805 4.84717 6.09375 5.62061 6.09375C6.10225 6.09375 6.55107 6.2335 6.88418 6.48692C7.27646 6.78574 7.49238 7.22754 7.49238 7.73145C7.4937 7.94036 7.45363 8.14746 7.37449 8.3408C7.29534 8.53415 7.17868 8.7099 7.03125 8.85791C6.99756 8.89248 6.96211 8.92471 6.92607 8.95606C7.01409 9.01963 7.0966 9.09049 7.17275 9.16787C7.48213 9.48428 7.64561 9.92227 7.64561 10.435C7.64648 10.9641 7.42354 11.4313 7.01895 11.751ZM10.7812 11.6016C10.7812 11.7259 10.7319 11.8451 10.644 11.933C10.556 12.0209 10.4368 12.0703 10.3125 12.0703C10.1882 12.0703 10.069 12.0209 9.98104 11.933C9.89314 11.8451 9.84375 11.7259 9.84375 11.6016V7.5085L9.18428 7.99453C9.13472 8.03108 9.07846 8.05751 9.01869 8.07232C8.95892 8.08712 8.89682 8.09001 8.83594 8.08081C8.77505 8.07162 8.71658 8.05052 8.66385 8.01873C8.61111 7.98693 8.56516 7.94506 8.52861 7.89551C8.49206 7.84596 8.46563 7.78969 8.45083 7.72992C8.43602 7.67015 8.43314 7.60805 8.44233 7.54717C8.45153 7.48629 8.47262 7.42781 8.50442 7.37508C8.53621 7.32235 8.57808 7.2764 8.62764 7.23985L9.89971 6.30235C9.98025 6.24299 10.0777 6.21096 10.1777 6.21094H10.3125C10.4368 6.21094 10.556 6.26033 10.644 6.34823C10.7319 6.43614 10.7812 6.55537 10.7812 6.67969V11.6016Z" fill="#11171D"/>
</g>
<defs>
<clipPath id="clip0_3_28">
<rect width="15" height="15" fill="white"/>
</clipPath>
</defs>
</svg>
